<?xml version="1.0"?>
<svg xmlns="http://www.w3.org/2000/svg" height="512px" viewBox="0 0 496 496" width="512px"><g><path d="m16 360c0-66.167969 53.832031-120 120-120h240c30.878906 0 56-25.121094 56-56s-25.121094-56-56-56h-144v16h144c22.054688 0 40 17.945312 40 40s-17.945312 40-40 40h-240c-74.992188 0-136 61.007812-136 136s61.007812 136 136 136h360v-16h-360c-66.167969 0-120-53.832031-120-120zm0 0" data-original="#000000" class="active-path" data-old_color="#000000" fill="#FFFFFF"/><path d="m80 360c0-30.878906 25.121094-56 56-56h240c66.167969 0 120-53.832031 120-120s-53.832031-120-120-120h-144v16h144c57.34375 0 104 46.65625 104 104s-46.65625 104-104 104h-240c-39.695312 0-72 32.304688-72 72s32.304688 72 72 72h360v-16h-360c-30.878906 0-56-25.121094-56-56zm0 0" data-original="#000000" class="active-path" data-old_color="#000000" fill="#FFFFFF"/><path d="m344 448h32v16h-32zm0 0" data-original="#000000" class="active-path" data-old_color="#000000" fill="#FFFFFF"/><path d="m280 448h32v16h-32zm0 0" data-original="#000000" class="active-path" data-old_color="#000000" fill="#FFFFFF"/><path d="m216 448h32v16h-32zm0 0" data-original="#000000" class="active-path" data-old_color="#000000" fill="#FFFFFF"/><path d="m152 448h32v16h-32zm0 0" data-original="#000000" class="active-path" data-old_color="#000000" fill="#FFFFFF"/><path d="m92 436.230469-8 13.847656c10.769531 6.226563 22.441406 10.425781 34.679688 12.480469l2.648437-15.78125c-10.351563-1.730469-20.214844-5.28125-29.328125-10.546875zm0 0" data-original="#000000" class="active-path" data-old_color="#000000" fill="#FFFFFF"/><path d="m51.519531 420.671875 12.992188-9.34375c-6.398438-8.902344-11.023438-18.769531-13.742188-29.320313l-15.488281 3.984376c3.207031 12.488281 8.671875 24.160156 16.238281 34.679687zm0 0" data-original="#000000" class="active-path" data-old_color="#000000" fill="#FFFFFF"/><path d="m32.351562 351.335938 15.945313 1.320312c.839844-10.191406 3.421875-20.0625 7.671875-29.328125l-14.542969-6.671875c-5.019531 10.96875-8.074219 22.632812-9.074219 34.679688zm0 0" data-original="#000000" class="active-path" data-old_color="#000000" fill="#FFFFFF"/><path d="m77.792969 294c8.503906-7.503906 18.222656-13.222656 28.871093-16.992188l-5.335937-15.085937c-12.59375 4.453125-24.070313 11.207031-34.128906 20.085937zm0 0" data-original="#000000" class="active-path" data-old_color="#000000" fill="#FFFFFF"/><path d="m136 256h32v16h-32zm0 0" data-original="#000000" class="active-path" data-old_color="#000000" fill="#FFFFFF"/><path d="m200 256h32v16h-32zm0 0" data-original="#000000" class="active-path" data-old_color="#000000" fill="#FFFFFF"/><path d="m264 256h32v16h-32zm0 0" data-original="#000000" class="active-path" data-old_color="#000000" fill="#FFFFFF"/><path d="m328 256h32v16h-32zm0 0" data-original="#000000" class="active-path" data-old_color="#000000" fill="#FFFFFF"/><path d="m393.59375 270.238281c12.671875-2.566406 24.847656-8.046875 35.222656-15.839843l-9.617187-12.789063c-8.605469 6.460937-18.296875 10.824219-28.792969 12.949219zm0 0" data-original="#000000" class="active-path" data-old_color="#000000" fill="#FFFFFF"/><path d="m456.671875 219.207031c4.863281-11.128906 7.328125-22.976562 7.328125-35.207031h-16c0 10.015625-2.015625 19.703125-5.992188 28.800781zm0 0" data-original="#000000" class="active-path" data-old_color="#000000" fill="#FFFFFF"/><path d="m428.808594 113.601562-9.609375 12.789063c9.960937 7.488281 17.847656 17.449219 22.816406 28.816406l14.664063-6.40625c-6.070313-13.890625-15.703126-26.066406-27.871094-35.199219zm0 0" data-original="#000000" class="active-path" data-old_color="#000000" fill="#FFFFFF"/><path d="m390.40625 113.441406 3.1875-15.679687c-5.753906-1.167969-11.664062-1.761719-17.59375-1.761719h-16v16h16c4.855469 0 9.703125.488281 14.40625 1.441406zm0 0" data-original="#000000" class="active-path" data-old_color="#000000" fill="#FFFFFF"/><path d="m296 96h32v16h-32zm0 0" data-original="#000000" class="active-path" data-old_color="#000000" fill="#FFFFFF"/><path d="m232 96h32v16h-32zm0 0" data-original="#000000" class="active-path" data-old_color="#000000" fill="#FFFFFF"/><path d="m8 104h41.472656c3.3125 9.289062 12.113282 16 22.527344 16s19.214844-6.710938 22.527344-16h34.953125c3.3125 9.289062 12.113281 16 22.527343 16 10.417969 0 19.214844-6.710938 22.527344-16h25.464844c4.414062 0 8-3.585938 8-8v-40c0-3.671875-2.496094-6.871094-6.054688-7.761719l-28.035156-7.007812-14.476562-36.199219c-1.226563-3.039062-4.160156-5.03125-7.433594-5.03125h-64c-2.121094 0-4.160156.839844-5.65625 2.34375l-38.289062 38.289062-37.621094 7.527344c-3.746094.742188-6.433594 4.023438-6.433594 7.839844v40c0 4.414062 3.585938 8 8 8zm64 0c-4.40625 0-8-3.59375-8-8s3.59375-8 8-8 8 3.59375 8 8-3.59375 8-8 8zm80 0c-4.40625 0-8-3.59375-8-8s3.59375-8 8-8 8 3.59375 8 8-3.59375 8-8 8zm-136-41.441406 33.566406-6.71875c1.554688-.304688 2.96875-1.0625 4.089844-2.183594l37.65625-37.65625h55.273438l13.988281 34.976562c.960937 2.382813 3 4.167969 5.488281 4.792969l25.9375 6.476563v25.753906h-17.472656c-3.3125-9.289062-12.113282-16-22.527344-16s-19.214844 6.710938-22.527344 16h-34.953125c-3.3125-9.289062-12.113281-16-22.527343-16-10.417969 0-19.214844 6.710938-22.527344 16h-33.464844zm0 0" data-original="#000000" class="active-path" data-old_color="#000000" fill="#FFFFFF"/><path d="m392 448h32v16h-32zm0 0" data-original="#000000" class="active-path" data-old_color="#000000" fill="#FFFFFF"/><path d="m440 448h32v16h-32zm0 0" data-original="#000000" class="active-path" data-old_color="#000000" fill="#FFFFFF"/></g> </svg>
