<?xml version="1.0"?>
<svg xmlns="http://www.w3.org/2000/svg" xmlns:xlink="http://www.w3.org/1999/xlink" version="1.1" id="Capa_1" x="0px" y="0px" viewBox="0 0 512.001 512.001" style="enable-background:new 0 0 512.001 512.001;" xml:space="preserve" width="512px" height="512px" class=""><g><g>
	<g>
		<circle cx="304.154" cy="55.609" r="7.515" data-original="#000000" class="active-path" data-old_color="#000000" fill="#FFFFFF"/>
	</g>
</g><g>
	<g>
		<circle cx="456.953" cy="47.593" r="7.515" data-original="#000000" class="active-path" data-old_color="#000000" fill="#FFFFFF"/>
	</g>
</g><g>
	<g>
		<path d="M497.232,120.935l-7.814-0.728l1.022-17.369l5.954-0.687c4.123-0.476,7.08-4.203,6.604-8.327    c-0.476-4.123-4.204-7.08-8.326-6.604l-3.336,0.385l4.685-79.649C496.27,3.7,492.778,0,488.518,0h-57.78    c-4.129,0-7.568,3.484-7.514,7.613l0.615,47.204c-0.027,0.028-0.057,0.052-0.084,0.08c-18.825,19.733-47.843,49.378-82.036,81.701    l-1.166-23.584l1.926-0.148c4.137-0.32,7.233-3.933,6.912-8.071c-0.319-4.137-3.904-7.237-8.072-6.914l-1.51,0.116l-0.851-17.187    l7.2-1.906c4.013-1.062,6.404-5.176,5.341-9.187c-1.062-4.012-5.173-6.4-9.187-5.342l-4.114,1.089l-2.489-50.305    c-0.198-4.002-3.5-7.144-7.506-7.144h-56.11c-4.259,0-7.752,3.701-7.502,7.956l2.001,34.015    C221.962,73.304,149.605,114.44,97.457,160.52c-1.229-0.287-2.525-0.275-3.769,0.081l-56.11,16.031    c-1.679,0.481-3.125,1.548-4.129,2.97c-23.348,33.376-30.711,63.843-21.884,90.556c9.503,28.756,35.62,44.335,49.64,49.042    c23.08,8.381,44.549,11.389,63.481,11.389c19.977,0,37.132-3.351,50.352-7.267c27.828-8.245,44.516-20.529,45.433-21.213    c1.339-0.937,2.3-2.446,2.75-3.998l14.971-52.401c17.472-13.34,35.977-28.446,55.353-45.185l43.486,97.845l15.666,78.328    l-9.608,127.222c-0.325,4.298,3.185,8.081,7.494,8.081h49.764c3.943,0,7.214-3.047,7.495-6.98l8.016-112.219    c0.045-0.628,0.011-1.259-0.102-1.88l-15.553-85.546l53.984-98.155c2-3.636,0.674-8.206-2.963-10.206    c-3.637-2.001-8.205-0.672-10.206,2.964l-55.271,100.493c-0.833,1.513-1.118,3.266-0.81,4.966l15.861,87.238l-7.449,104.294    h-34.664l9.076-120.17c0.052-0.682,0.01-1.369-0.124-2.04l-16.031-80.157c-0.108-0.543-0.277-1.072-0.502-1.578l-63.57-143.034    l-1.926-32.734l39.954-3.087l1.483,29.981c0.04,0.797,0.205,1.582,0.492,2.327l40.078,104.203c1.063,2.763,3.65,4.646,6.607,4.805    c2.963,0.166,5.733-1.431,7.088-4.064l57.78-112.219c0.563-1.093,0.85-2.308,0.833-3.538l-0.065-4.986l33.703,3.142l-0.46,7.822    l-16.832,30.603c-2,3.636-0.674,8.205,2.963,10.206c3.638,2.001,8.206,0.673,10.206-2.964l17.649-32.09    c0.538-0.979,0.853-2.065,0.918-3.18l0.53-9.003l7.302,0.68c0.237,0.022,0.473,0.033,0.706,0.033c3.836,0,7.111-2.923,7.474-6.817    C504.403,124.982,501.364,121.32,497.232,120.935z M321.053,23.045l2.294,46.351l-39.933,10.571l-3.349-56.921H321.053z     M88.237,189.987v12.985l-7.875-4.5C82.878,195.636,85.505,192.807,88.237,189.987z M75.686,181.376    c-3.005,3.151-5.892,6.314-8.639,9.487l-8.19-4.679L75.686,181.376z M55.183,299.962c-10.929-6.324-23.756-17.596-29.348-34.518    c-6.789-20.547-1.36-44.61,16.135-71.598l41.455,23.688C72.436,229.828,53.71,257.215,55.183,299.962z M90.354,311.963    c53.146-18.785,76.737-47.431,86.519-64.288L205.7,293.8C190.625,302.783,147.309,323.99,90.354,311.963z M190.849,241.679    l23.177,3.31c-4.971,3.624-9.844,7.087-14.617,10.385L190.849,241.679z M213.403,277.766l-6.022-9.634    c3.606-2.487,7.267-5.065,10.983-7.733L213.403,277.766z M287.162,186.162c-19.672,17.102-38.429,32.504-56.109,46.077    l-54.011-7.716c-3.684-0.491-7.325,1.737-8.358,5.365c-0.144,0.503-14.903,48.947-98.326,72.663    c-1.26-21.329,2.949-40.904,12.57-58.294c8.184-14.794,17.448-22.41,17.519-22.468c1.764-1.397,2.819-3.621,2.819-5.867v-40.453    c48.805-44.412,118.749-84.911,164.298-109.01l1.025,17.433l-7.012,1.857c-4.013,1.062-6.405,5.176-5.341,9.187    c0.892,3.368,3.933,5.594,7.259,5.594c0.636,0,1.284-0.082,1.928-0.251l4.067-1.076l0.247,4.21l-6.236,0.482    c-4.137,0.32-7.233,3.933-6.912,8.071c0.305,3.942,3.596,6.937,7.485,6.937c0.193,0,0.39-0.008,0.587-0.023l5.961-0.46    l1.989,33.82c0.053,0.901,0.269,1.785,0.635,2.61L287.162,186.162z M284.725,102.252l-0.411-6.977l39.792-10.533l0.713,14.413    L284.725,102.252z M375.624,229.637l-29.456-76.586c31.032-29.104,58.189-56.409,77.95-76.839l0.249,19.119l-7.848,0.906    c-4.123,0.476-7.08,4.203-6.604,8.327c0.441,3.831,3.69,6.654,7.455,6.654c0.288,0,0.578-0.016,0.871-0.05l6.323-0.729    l0.048,3.727l-6.201-0.578c-4.128-0.377-7.794,2.652-8.18,6.784c-0.386,4.133,2.652,7.794,6.784,8.18l7.794,0.726l0.061,4.711    L375.624,229.637z M474.444,118.811l-34.783-3.242l-0.089-6.862l35.709-4.12L474.444,118.811z M476.176,89.354L439.374,93.6    l-1.022-78.57h42.196L476.176,89.354z" data-original="#000000" class="active-path" data-old_color="#000000" fill="#FFFFFF"/>
	</g>
</g></g> </svg>
